<svg width="138" height="14" viewBox="0 0 138 14" fill="none" xmlns="http://www.w3.org/2000/svg">
<path d="M24.2441 11H22.8203V4.66016H24.2441V11ZM22.7324 3.01367C22.7324 2.79492 22.8008 2.61328 22.9375 2.46875C23.0781 2.32422 23.2773 2.25195 23.5352 2.25195C23.793 2.25195 23.9922 2.32422 24.1328 2.46875C24.2734 2.61328 24.3438 2.79492 24.3438 3.01367C24.3438 3.22852 24.2734 3.4082 24.1328 3.55273C23.9922 3.69336 23.793 3.76367 23.5352 3.76367C23.2773 3.76367 23.0781 3.69336 22.9375 3.55273C22.8008 3.4082 22.7324 3.22852 22.7324 3.01367ZM27.3611 4.66016L27.4021 5.39258C27.8709 4.82617 28.4861 4.54297 29.2478 4.54297C30.5681 4.54297 31.24 5.29883 31.2634 6.81055V11H29.8396V6.89258C29.8396 6.49023 29.7517 6.19336 29.5759 6.00195C29.4041 5.80664 29.1209 5.70898 28.7263 5.70898C28.1521 5.70898 27.7244 5.96875 27.4431 6.48828V11H26.0193V4.66016H27.3611ZM33.4605 11V5.71484H32.4937V4.66016H33.4605V4.08008C33.4605 3.37695 33.6558 2.83398 34.0464 2.45117C34.437 2.06836 34.9839 1.87695 35.687 1.87695C35.937 1.87695 36.2027 1.91211 36.4839 1.98242L36.4487 3.0957C36.2925 3.06445 36.1109 3.04883 35.9038 3.04883C35.2241 3.04883 34.8843 3.39844 34.8843 4.09766V4.66016H36.1734V5.71484H34.8843V11H33.4605ZM37.1868 7.77148C37.1868 7.15039 37.3098 6.5918 37.5559 6.0957C37.802 5.5957 38.1477 5.21289 38.593 4.94727C39.0384 4.67773 39.5501 4.54297 40.1282 4.54297C40.9837 4.54297 41.677 4.81836 42.2083 5.36914C42.7434 5.91992 43.0325 6.65039 43.0755 7.56055L43.0813 7.89453C43.0813 8.51953 42.9602 9.07812 42.718 9.57031C42.4798 10.0625 42.136 10.4434 41.6868 10.7129C41.2415 10.9824 40.7259 11.1172 40.1399 11.1172C39.2454 11.1172 38.5286 10.8203 37.9895 10.2266C37.4544 9.62891 37.1868 8.83398 37.1868 7.8418V7.77148ZM38.6106 7.89453C38.6106 8.54688 38.7454 9.05859 39.0149 9.42969C39.2845 9.79688 39.6595 9.98047 40.1399 9.98047C40.6204 9.98047 40.9934 9.79297 41.2591 9.41797C41.5286 9.04297 41.6634 8.49414 41.6634 7.77148C41.6634 7.13086 41.5247 6.62305 41.2473 6.24805C40.9739 5.87305 40.6009 5.68555 40.1282 5.68555C39.6634 5.68555 39.2942 5.87109 39.0208 6.24219C38.7473 6.60938 38.6106 7.16016 38.6106 7.89453ZM53.9971 7.96484C53.9502 8.94141 53.71 9.71289 53.2764 10.2793C52.8428 10.8418 52.2549 11.123 51.5127 11.123C50.8057 11.123 50.333 10.8223 50.0948 10.2207C49.8955 10.5176 49.6631 10.7402 49.3975 10.8887C49.1358 11.0371 48.8604 11.1113 48.5713 11.1113C48.001 11.1113 47.5674 10.877 47.2705 10.4082C46.9776 9.93945 46.8662 9.3125 46.9366 8.52734C46.9991 7.89062 47.1534 7.31641 47.3995 6.80469C47.6495 6.29297 47.9639 5.89844 48.3428 5.62109C48.7256 5.33984 49.1319 5.19922 49.5616 5.19922C49.8897 5.19922 50.1787 5.24023 50.4287 5.32227C50.6827 5.4043 50.9795 5.57422 51.3194 5.83203L51.0147 9.13086C50.9405 9.9043 51.1631 10.291 51.6827 10.291C52.0811 10.291 52.4073 10.0781 52.6612 9.65234C52.919 9.22266 53.0596 8.66797 53.083 7.98828C53.1495 6.54688 52.8702 5.44336 52.2452 4.67773C51.6241 3.91211 50.6885 3.5293 49.4385 3.5293C48.6729 3.5293 47.9932 3.7207 47.3995 4.10352C46.8096 4.48633 46.3409 5.04102 45.9932 5.76758C45.6455 6.49023 45.4541 7.31445 45.419 8.24023C45.3721 9.18164 45.4834 9.99414 45.753 10.6777C46.0264 11.3574 46.4424 11.875 47.001 12.2305C47.5635 12.5859 48.2491 12.7637 49.0577 12.7637C49.3858 12.7637 49.7276 12.7246 50.083 12.6465C50.4424 12.5684 50.7471 12.4629 50.9971 12.3301L51.2198 13.1328C50.9815 13.2891 50.6592 13.4141 50.253 13.5078C49.8506 13.6055 49.4444 13.6543 49.0342 13.6543C48.042 13.6543 47.1905 13.4434 46.4795 13.0215C45.7686 12.6035 45.2354 11.9961 44.8799 11.1992C44.5127 10.375 44.3506 9.38867 44.3936 8.24023C44.4405 7.16992 44.6807 6.20898 45.1143 5.35742C45.5479 4.50195 46.1397 3.83789 46.8897 3.36523C47.6436 2.89258 48.501 2.65625 49.462 2.65625C50.4346 2.65625 51.2705 2.87109 51.9698 3.30078C52.6729 3.72656 53.1983 4.3418 53.5459 5.14648C53.8936 5.94727 54.044 6.88672 53.9971 7.96484ZM48.085 8.52734C48.0342 9.05859 48.0811 9.46289 48.2256 9.74023C48.3702 10.0137 48.6006 10.1504 48.917 10.1504C49.128 10.1504 49.3272 10.0586 49.5147 9.875C49.7022 9.6875 49.8545 9.43164 49.9717 9.10742L50.2354 6.21875C50.0401 6.14453 49.8506 6.10742 49.667 6.10742C49.2334 6.10742 48.8799 6.3125 48.6065 6.72266C48.333 7.12891 48.1592 7.73047 48.085 8.52734ZM55.2332 7.7832C55.2332 6.80664 55.4598 6.02344 55.9129 5.43359C56.366 4.83984 56.9734 4.54297 57.7352 4.54297C58.407 4.54297 58.95 4.77734 59.3641 5.24609V2H60.7879V11H59.4988L59.4285 10.3438C59.0027 10.8594 58.4344 11.1172 57.7234 11.1172C56.9813 11.1172 56.3797 10.8184 55.9188 10.2207C55.4617 9.62305 55.2332 8.81055 55.2332 7.7832ZM56.657 7.90625C56.657 8.55078 56.7801 9.05469 57.0262 9.41797C57.2762 9.77734 57.6297 9.95703 58.0867 9.95703C58.6688 9.95703 59.0945 9.69727 59.3641 9.17773V6.4707C59.1023 5.96289 58.6805 5.70898 58.0984 5.70898C57.6375 5.70898 57.282 5.89258 57.032 6.25977C56.782 6.62305 56.657 7.17188 56.657 7.90625ZM65.3052 11.1172C64.4029 11.1172 63.6705 10.834 63.108 10.2676C62.5494 9.69727 62.2701 8.93945 62.2701 7.99414V7.81836C62.2701 7.18555 62.3912 6.62109 62.6334 6.125C62.8795 5.625 63.2232 5.23633 63.6646 4.95898C64.106 4.68164 64.5982 4.54297 65.1412 4.54297C66.0045 4.54297 66.6705 4.81836 67.1392 5.36914C67.6119 5.91992 67.8482 6.69922 67.8482 7.70703V8.28125H63.7056C63.7486 8.80469 63.9224 9.21875 64.2271 9.52344C64.5357 9.82812 64.9224 9.98047 65.3873 9.98047C66.0396 9.98047 66.5709 9.7168 66.981 9.18945L67.7486 9.92188C67.4947 10.3008 67.1548 10.5957 66.7291 10.8066C66.3072 11.0137 65.8326 11.1172 65.3052 11.1172ZM65.1353 5.68555C64.7447 5.68555 64.4283 5.82227 64.1861 6.0957C63.9478 6.36914 63.7955 6.75 63.7291 7.23828H66.442V7.13281C66.4107 6.65625 66.2837 6.29688 66.0611 6.05469C65.8384 5.80859 65.5298 5.68555 65.1353 5.68555ZM71.3519 9.19531L72.6937 4.66016H74.1644L71.9671 11H70.7308L68.5159 4.66016H69.9925L71.3519 9.19531ZM78.8516 9.27734C78.8516 9.02344 78.7462 8.83008 78.5352 8.69727C78.3282 8.56445 77.9825 8.44727 77.4981 8.3457C77.0137 8.24414 76.6095 8.11523 76.2852 7.95898C75.5743 7.61523 75.2188 7.11719 75.2188 6.46484C75.2188 5.91797 75.4493 5.46094 75.9102 5.09375C76.3712 4.72656 76.9571 4.54297 77.668 4.54297C78.4259 4.54297 79.0372 4.73047 79.502 5.10547C79.9708 5.48047 80.2052 5.9668 80.2052 6.56445H78.7813C78.7813 6.29102 78.6798 6.06445 78.4766 5.88477C78.2735 5.70117 78.004 5.60938 77.668 5.60938C77.3555 5.60938 77.0997 5.68164 76.9005 5.82617C76.7052 5.9707 76.6075 6.16406 76.6075 6.40625C76.6075 6.625 76.6993 6.79492 76.8829 6.91602C77.0665 7.03711 77.4376 7.16016 77.9962 7.28516C78.5548 7.40625 78.9923 7.55273 79.3087 7.72461C79.629 7.89258 79.8653 8.0957 80.0177 8.33398C80.1739 8.57227 80.252 8.86133 80.252 9.20117C80.252 9.77148 80.0157 10.2344 79.543 10.5898C79.0704 10.9414 78.4512 11.1172 77.6856 11.1172C77.1661 11.1172 76.7032 11.0234 76.297 10.8359C75.8907 10.6484 75.5743 10.3906 75.3477 10.0625C75.1212 9.73438 75.0079 9.38086 75.0079 9.00195H76.3907C76.4102 9.33789 76.5372 9.59766 76.7716 9.78125C77.0059 9.96094 77.3165 10.0508 77.7032 10.0508C78.0782 10.0508 78.3634 9.98047 78.5587 9.83984C78.754 9.69531 78.8516 9.50781 78.8516 9.27734ZM83.5213 3.11914V4.66016H84.6405V5.71484H83.5213V9.25391C83.5213 9.49609 83.5682 9.67188 83.662 9.78125C83.7596 9.88672 83.9315 9.93945 84.1776 9.93945C84.3416 9.93945 84.5077 9.91992 84.6756 9.88086V10.9824C84.3514 11.0723 84.0389 11.1172 83.7381 11.1172C82.6444 11.1172 82.0975 10.5137 82.0975 9.30664V5.71484H81.0545V4.66016H82.0975V3.11914H83.5213ZM89.8141 10.3789C89.3961 10.8711 88.8023 11.1172 88.0328 11.1172C87.3453 11.1172 86.8238 10.916 86.4684 10.5137C86.1168 10.1113 85.941 9.5293 85.941 8.76758V4.66016H87.3648V8.75C87.3648 9.55469 87.6988 9.95703 88.3668 9.95703C89.0582 9.95703 89.525 9.70898 89.7672 9.21289V4.66016H91.191V11H89.8492L89.8141 10.3789ZM92.6146 7.7832C92.6146 6.80664 92.8412 6.02344 93.2943 5.43359C93.7474 4.83984 94.3548 4.54297 95.1166 4.54297C95.7884 4.54297 96.3314 4.77734 96.7455 5.24609V2H98.1693V11H96.8802L96.8099 10.3438C96.3841 10.8594 95.8158 11.1172 95.1048 11.1172C94.3627 11.1172 93.7611 10.8184 93.3002 10.2207C92.8431 9.62305 92.6146 8.81055 92.6146 7.7832ZM94.0384 7.90625C94.0384 8.55078 94.1615 9.05469 94.4076 9.41797C94.6576 9.77734 95.0111 9.95703 95.4681 9.95703C96.0502 9.95703 96.4759 9.69727 96.7455 9.17773V6.4707C96.4837 5.96289 96.0619 5.70898 95.4798 5.70898C95.0189 5.70898 94.6634 5.89258 94.4134 6.25977C94.1634 6.62305 94.0384 7.17188 94.0384 7.90625ZM101.409 11H99.9855V4.66016H101.409V11ZM99.8976 3.01367C99.8976 2.79492 99.9659 2.61328 100.103 2.46875C100.243 2.32422 100.442 2.25195 100.7 2.25195C100.958 2.25195 101.157 2.32422 101.298 2.46875C101.439 2.61328 101.509 2.79492 101.509 3.01367C101.509 3.22852 101.439 3.4082 101.298 3.55273C101.157 3.69336 100.958 3.76367 100.7 3.76367C100.442 3.76367 100.243 3.69336 100.103 3.55273C99.9659 3.4082 99.8976 3.22852 99.8976 3.01367ZM102.938 7.77148C102.938 7.15039 103.061 6.5918 103.308 6.0957C103.554 5.5957 103.899 5.21289 104.345 4.94727C104.79 4.67773 105.302 4.54297 105.88 4.54297C106.735 4.54297 107.429 4.81836 107.96 5.36914C108.495 5.91992 108.784 6.65039 108.827 7.56055L108.833 7.89453C108.833 8.51953 108.712 9.07812 108.47 9.57031C108.231 10.0625 107.888 10.4434 107.438 10.7129C106.993 10.9824 106.477 11.1172 105.891 11.1172C104.997 11.1172 104.28 10.8203 103.741 10.2266C103.206 9.62891 102.938 8.83398 102.938 7.8418V7.77148ZM104.362 7.89453C104.362 8.54688 104.497 9.05859 104.766 9.42969C105.036 9.79688 105.411 9.98047 105.891 9.98047C106.372 9.98047 106.745 9.79297 107.011 9.41797C107.28 9.04297 107.415 8.49414 107.415 7.77148C107.415 7.13086 107.276 6.62305 106.999 6.24805C106.725 5.87305 106.352 5.68555 105.88 5.68555C105.415 5.68555 105.046 5.87109 104.772 6.24219C104.499 6.60938 104.362 7.16016 104.362 7.89453ZM111.165 9.5C111.43 9.5 111.635 9.57617 111.78 9.72852C111.924 9.87695 111.997 10.0645 111.997 10.291C111.997 10.5137 111.924 10.6992 111.78 10.8477C111.635 10.9922 111.43 11.0645 111.165 11.0645C110.911 11.0645 110.71 10.9922 110.561 10.8477C110.413 10.7031 110.339 10.5176 110.339 10.291C110.339 10.0645 110.411 9.87695 110.555 9.72852C110.7 9.57617 110.903 9.5 111.165 9.5ZM116.473 9.98047C116.829 9.98047 117.123 9.87695 117.358 9.66992C117.592 9.46289 117.717 9.20703 117.733 8.90234H119.075C119.059 9.29688 118.936 9.66602 118.705 10.0098C118.475 10.3496 118.162 10.6191 117.768 10.8184C117.373 11.0176 116.948 11.1172 116.491 11.1172C115.604 11.1172 114.901 10.8301 114.381 10.2559C113.862 9.68164 113.602 8.88867 113.602 7.87695V7.73047C113.602 6.76562 113.86 5.99414 114.375 5.41602C114.891 4.83398 115.594 4.54297 116.485 4.54297C117.239 4.54297 117.852 4.76367 118.325 5.20508C118.801 5.64258 119.051 6.21875 119.075 6.93359H117.733C117.717 6.57031 117.592 6.27148 117.358 6.03711C117.127 5.80273 116.832 5.68555 116.473 5.68555C116.012 5.68555 115.657 5.85352 115.407 6.18945C115.157 6.52148 115.03 7.02734 115.026 7.70703V7.93555C115.026 8.62305 115.149 9.13672 115.395 9.47656C115.645 9.8125 116.004 9.98047 116.473 9.98047ZM120.123 7.77148C120.123 7.15039 120.246 6.5918 120.492 6.0957C120.738 5.5957 121.084 5.21289 121.529 4.94727C121.975 4.67773 122.486 4.54297 123.065 4.54297C123.92 4.54297 124.613 4.81836 125.145 5.36914C125.68 5.91992 125.969 6.65039 126.012 7.56055L126.018 7.89453C126.018 8.51953 125.897 9.07812 125.654 9.57031C125.416 10.0625 125.072 10.4434 124.623 10.7129C124.178 10.9824 123.662 11.1172 123.076 11.1172C122.182 11.1172 121.465 10.8203 120.926 10.2266C120.391 9.62891 120.123 8.83398 120.123 7.8418V7.77148ZM121.547 7.89453C121.547 8.54688 121.682 9.05859 121.951 9.42969C122.221 9.79688 122.596 9.98047 123.076 9.98047C123.557 9.98047 123.93 9.79297 124.195 9.41797C124.465 9.04297 124.6 8.49414 124.6 7.77148C124.6 7.13086 124.461 6.62305 124.184 6.24805C123.91 5.87305 123.537 5.68555 123.065 5.68555C122.6 5.68555 122.231 5.87109 121.957 6.24219C121.684 6.60938 121.547 7.16016 121.547 7.89453ZM128.801 4.66016L128.842 5.32227C129.287 4.80273 129.896 4.54297 130.67 4.54297C131.518 4.54297 132.098 4.86719 132.41 5.51562C132.871 4.86719 133.519 4.54297 134.355 4.54297C135.055 4.54297 135.574 4.73633 135.914 5.12305C136.258 5.50977 136.434 6.08008 136.441 6.83398V11H135.018V6.875C135.018 6.47266 134.93 6.17773 134.754 5.99023C134.578 5.80273 134.287 5.70898 133.881 5.70898C133.557 5.70898 133.291 5.79688 133.084 5.97266C132.881 6.14453 132.738 6.37109 132.656 6.65234L132.662 11H131.238V6.82812C131.219 6.08203 130.838 5.70898 130.096 5.70898C129.525 5.70898 129.121 5.94141 128.883 6.40625V11H127.459V4.66016H128.801Z" fill="#757575"/>
<path d="M12.6875 2H1.31251C0.588747 2 0 2.56071 0 3.25001V10.75C0 11.4393 0.588747 12 1.31251 12H12.6875C13.4113 12 14 11.4393 14 10.75V3.25001C14 2.56071 13.4113 2 12.6875 2ZM12.6875 2.83333C12.7469 2.83333 12.8035 2.84507 12.8552 2.86559L7 7.69865L1.14479 2.86559C1.19649 2.8451 1.25304 2.83333 1.31248 2.83333H12.6875ZM12.6875 11.1666H1.31251C1.07112 11.1666 0.874996 10.9799 0.874996 10.75V3.74601L6.71331 8.56493C6.79578 8.63287 6.89789 8.66666 7 8.66666C7.10211 8.66666 7.20422 8.6329 7.28669 8.56493L13.125 3.74601V10.75C13.125 10.9799 12.9289 11.1666 12.6875 11.1666Z" fill="#757575"/>
</svg>
